<svg t="1610779893284" class="icon" viewBox="0 0 1024 1024" version="1.1" xmlns="http://www.w3.org/2000/svg" p-id="3503" width="200" height="200"><path d="M512 64a448 448 0 1 1 0 896A448 448 0 0 1 512 64z m0 72a376 376 0 1 0 0 752 376 376 0 0 0 0-752z m26.816 140.48c5.504 0 9.984 4.48 9.984 10.048V475.52h188.992c5.504 0 9.984 4.48 9.984 9.984v51.968c0 5.568-4.48 10.048-9.984 10.048H548.8v188.992c0 5.504-4.48 9.984-9.984 9.984h-52.032a9.984 9.984 0 0 1-9.984-9.984V547.52H287.808a9.984 9.984 0 0 1-9.984-10.048v-51.968c0-5.504 4.48-9.984 9.984-9.984H476.8V286.528c0-5.568 4.48-10.048 9.984-10.048h52.032z" p-id="3504"></path></svg>