<?xml version="1.0" standalone="no"?><!DOCTYPE svg PUBLIC "-//W3C//DTD SVG 1.1//EN" "http://www.w3.org/Graphics/SVG/1.1/DTD/svg11.dtd"><svg t="1610540586911" class="icon" viewBox="0 0 1024 1024" version="1.1" xmlns="http://www.w3.org/2000/svg" p-id="6995" xmlns:xlink="http://www.w3.org/1999/xlink" width="200" height="200"><defs><style type="text/css"></style></defs><path d="M38.629289 38.381409m105.548875 0l735.643672 0q105.548875 0 105.548875 105.548875l0 0q0 105.548875-105.548875 105.548875l-735.643672 0q-105.548875 0-105.548875-105.548875l0 0q0-105.548875 105.548875-105.548875Z" p-id="6996"></path><path d="M512 959.535225a47.976761 47.976761 0 0 1-47.976761-47.976761L464.023239 255.87606l95.953522 0L559.976761 911.558464A47.976761 47.976761 0 0 1 512 959.535225z" p-id="6997"></path><path d="M38.629289 390.210992m105.548875 0l735.643672 0q105.548875 0 105.548875 105.548874l0 0q0 105.548875-105.548875 105.548875l-735.643672 0q-105.548875 0-105.548875-105.548875l0 0q0-105.548875 105.548875-105.548874Z" p-id="6998"></path><path d="M480.463276 1009.175181l-151.542597-179.433087a36.910122 36.910122 0 0 1 6.332933-53.733973 41.835736 41.835736 0 0 1 25.203791-8.379941H663.606566C685.803814 767.62818 703.907045 784.771876 703.907045 805.881651c0 8.699786-3.134482 17.079727-8.827724 23.860443L543.472755 1009.175181a41.899705 41.899705 0 0 1-63.009479 0z" p-id="6999"></path></svg>
