<svg t="1611826488992" class="icon" viewBox="0 0 1024 1024" version="1.1" xmlns="http://www.w3.org/2000/svg" p-id="27220" width="16" height="16"><path d="M1024 976a48 48 0 0 0-48-48H48a48 48 0 1 0 0 96h928a48 48 0 0 0 48-48z" fill="#6B6667" p-id="27221"></path><path d="M448 704V128a128 128 0 0 0-128-128H256a128 128 0 0 0-128 128v576a128 128 0 0 0 128 128h64a128 128 0 0 0 128-128z" fill="#CDCDCD" p-id="27222"></path><path d="M448 128a128 128 0 0 0-128-128H256a128 128 0 0 0-128 128v576a128 128 0 0 0 128 128h64a128 128 0 0 0 128-128V128zM371.2 128v576a51.2 51.2 0 0 1-44.8 50.816L320 755.2H256a51.2 51.2 0 0 1-50.816-44.8L204.8 704V128a51.2 51.2 0 0 1 44.8-50.816L256 76.8h64a51.2 51.2 0 0 1 50.816 44.8L371.2 128z" fill="#6B6667" p-id="27223"></path><path d="M896 704V384a128 128 0 0 0-128-128h-64a128 128 0 0 0-128 128v320a128 128 0 0 0 128 128h64a128 128 0 0 0 128-128z" fill="#E5E6E9" p-id="27224"></path><path d="M896 384a128 128 0 0 0-128-128h-64a128 128 0 0 0-128 128v320a128 128 0 0 0 128 128h64a128 128 0 0 0 128-128V384z m-76.8 0v320a51.2 51.2 0 0 1-44.8 50.816l-6.4 0.384h-64a51.2 51.2 0 0 1-50.816-44.8L652.8 704V384a51.2 51.2 0 0 1 44.8-50.816L704 332.8h64a51.2 51.2 0 0 1 50.816 44.8l0.384 6.4z" fill="#6B6667" p-id="27225"></path></svg>