<?xml version="1.0" standalone="no"?><!DOCTYPE svg PUBLIC "-//W3C//DTD SVG 1.1//EN" "http://www.w3.org/Graphics/SVG/1.1/DTD/svg11.dtd"><svg t="1610542371193" class="icon" viewBox="0 0 1024 1024" version="1.1" xmlns="http://www.w3.org/2000/svg" p-id="11312" xmlns:xlink="http://www.w3.org/1999/xlink" width="200" height="200"><defs><style type="text/css"></style></defs><path d="M66.432 283.712a89.344 89.344 0 0 1-26.24-63.36c0-22.976 8.768-45.888 26.24-63.36l90.56-90.56c17.472-17.472 40.384-26.24 63.36-26.24 22.912 0 45.824 8.768 63.36 26.24l639.36 639.36 52.8 239.552-270.336-22.592z" p-id="11313"></path><path d="M3.113887 718.156287m90.509668-90.509668l534.007042-534.007041q90.509668-90.509668 181.019336 0l117.662568 117.662568q90.509668 90.509668 0 181.019336l-534.007041 534.007041q-90.509668 90.509668-181.019336 0l-117.662569-117.662568q-90.509668-90.509668 0-181.019336Z" p-id="11314"></path><path d="M170.692538 564.335106l9.639279-9.639279a32 32 0 0 1 45.254834 0l91.867313 91.867313a32 32 0 0 1 0 45.254834l-9.639279 9.639279a32 32 0 0 1-45.254834 0l-91.867313-91.867313a32 32 0 0 1 0-45.254834zM362.708798 376.5728l13.84798-13.847979a32 32 0 0 1 45.254834 0l151.648948 151.648949a32 32 0 0 1 0 45.254834l-13.847979 13.847979a32 32 0 0 1-45.254834 0L362.708798 421.827634a32 32 0 0 1 0-45.254834zM554.725059 180.302585l9.594025-9.594025a32 32 0 0 1 45.254834 0l91.867313 91.867313a32 32 0 0 1 0 45.254834l-9.594025 9.594025a32 32 0 0 1-45.254834 0l-91.867313-91.867313a32 32 0 0 1 0-45.254834z" p-id="11315"></path></svg>