<svg t="1610698363734" class="icon" viewBox="0 0 1024 1024" version="1.1" xmlns="http://www.w3.org/2000/svg" p-id="4048" width="16" height="16"><path d="M686.592 958.144L39.296 310.848a128 128 0 0 1 0-181.056L129.792 39.296a128 128 0 0 1 181.056 0L958.08 686.592l55.232 250.496a64 64 0 0 1-76.288 76.288l-250.496-55.232z" fill="#E5E6E9" p-id="4049"></path><path d="M310.848 39.296L958.08 686.592l55.232 250.496a64 64 0 0 1-76.288 76.288l-250.496-55.232L39.296 310.848a128 128 0 0 1 0-181.056L129.792 39.296a128 128 0 0 1 181.056 0z m-54.336 54.336a51.2 51.2 0 0 0-66.624-4.992l-5.76 4.992-90.496 90.496a51.2 51.2 0 0 0-4.992 66.688l4.992 5.76 631.296 631.296 209.088 46.08-46.08-208.96-631.424-631.36z" fill="#B2B1B1" p-id="4050"></path><path d="M39.296 627.648L627.648 39.296a128 128 0 0 1 180.992 0l171.968 171.968a128 128 0 0 1 0 181.056L392.32 980.608a128 128 0 0 1-181.056 0L39.296 808.64a128 128 0 0 1 0-180.992z" fill="#CDCDCD" p-id="4051"></path><path d="M627.648 39.296a128 128 0 0 1 180.992 0l171.968 171.968a128 128 0 0 1 0 181.056L392.32 980.608a128 128 0 0 1-181.056 0L39.296 808.64a128 128 0 0 1 0-180.992L627.648 39.296z m-459.136 567.68l-74.88 74.944a51.2 51.2 0 0 0-4.288 67.584l4.288 4.864 171.968 171.968a51.2 51.2 0 0 0 67.584 4.224l4.8-4.224 588.352-588.352a51.2 51.2 0 0 0 4.224-67.584l-4.224-4.8-171.968-171.968a51.2 51.2 0 0 0-67.648-4.288l-4.8 4.288-74.88 74.752 2.56 2.304 91.84 91.904a32 32 0 0 1 0 45.248l-9.6 9.6a32 32 0 0 1-45.248 0L554.688 225.536l-2.176-2.56-135.68 135.68c1.728 1.152 3.392 2.56 4.928 4.032l151.68 151.68a32 32 0 0 1 0 45.248l-13.824 13.824a32 32 0 0 1-45.248 0l-151.68-151.68a32.128 32.128 0 0 1-4.032-4.928l-135.68 135.552 2.56 2.304 91.904 91.904a32 32 0 0 1 0 45.248l-9.6 9.6a32 32 0 0 1-45.248 0L170.688 609.536l-2.176-2.56z" p-id="4052"></path></svg>