<?xml version="1.0" standalone="no"?><!DOCTYPE svg PUBLIC "-//W3C//DTD SVG 1.1//EN" "http://www.w3.org/Graphics/SVG/1.1/DTD/svg11.dtd"><svg t="1610540549366" class="icon" viewBox="0 0 1024 1024" version="1.1" xmlns="http://www.w3.org/2000/svg" p-id="6364" xmlns:xlink="http://www.w3.org/1999/xlink" width="200" height="200"><defs><style type="text/css"></style></defs><path d="M166.4 985.6m0-121.6l0-704q0-121.6 121.6-121.6l0 0q121.6 0 121.6 121.6l0 704q0 121.6-121.6 121.6l0 0q-121.6 0-121.6-121.6Z" p-id="6365"></path><path d="M614.4 857.6m0-121.6l0-448q0-121.6 121.6-121.6l0 0q121.6 0 121.6 121.6l0 448q0 121.6-121.6 121.6l0 0q-121.6 0-121.6-121.6Z" p-id="6366"></path><path d="M1024 464m0 48l0 0q0 48-48 48l-928 0q-48 0-48-48l0 0q0-48 48-48l928 0q48 0 48 48Z" p-id="6367"></path></svg>
