<svg t="1611826586220" class="icon" viewBox="0 0 1024 1024" version="1.1" xmlns="http://www.w3.org/2000/svg" p-id="27364" width="16" height="16"><path d="M896 896H128a128 128 0 0 1-128-128v-64a128 128 0 0 1 128-128h768a128 128 0 0 1 128 128v64a128 128 0 0 1-128 128z" fill="#CDCDCD" p-id="27365"></path><path d="M128 896a128 128 0 0 1-128-128v-64a128 128 0 0 1 128-128h768a128 128 0 0 1 128 128v64a128 128 0 0 1-128 128H128z m0-76.8h768a51.2 51.2 0 0 0 50.816-44.8l0.384-6.4v-64a51.2 51.2 0 0 0-44.8-50.816L896 652.8H128a51.2 51.2 0 0 0-50.816 44.8L76.8 704v64a51.2 51.2 0 0 0 44.8 50.816l6.4 0.384z" fill="#6B6667" p-id="27366"></path><path d="M768 448H256a128 128 0 0 1-128-128V256a128 128 0 0 1 128-128h512a128 128 0 0 1 128 128v64a128 128 0 0 1-128 128z" fill="#E5E6E9" p-id="27367"></path><path d="M256 448a128 128 0 0 1-128-128V256a128 128 0 0 1 128-128h512a128 128 0 0 1 128 128v64a128 128 0 0 1-128 128H256z m0-76.8h512a51.2 51.2 0 0 0 50.816-44.8L819.2 320V256a51.2 51.2 0 0 0-44.8-50.816L768 204.8H256a51.2 51.2 0 0 0-50.816 44.8L204.8 256v64a51.2 51.2 0 0 0 44.8 50.816L256 371.2z" fill="#6B6667" p-id="27368"></path><path d="M512 0a48 48 0 0 1 48 48v928a48 48 0 1 1-96 0V48A48 48 0 0 1 512 0z" fill="#6B6667" p-id="27369"></path></svg>