<?xml version="1.0" standalone="no"?><!DOCTYPE svg PUBLIC "-//W3C//DTD SVG 1.1//EN" "http://www.w3.org/Graphics/SVG/1.1/DTD/svg11.dtd"><svg t="1610540583142" class="icon" viewBox="0 0 1024 1024" version="1.1" xmlns="http://www.w3.org/2000/svg" p-id="6870" xmlns:xlink="http://www.w3.org/1999/xlink" width="200" height="200"><defs><style type="text/css"></style></defs><path d="M377.263158 262.736842c24.171789 0 46.08 9.808842 61.925053 25.653895 15.845053 15.845053 25.653895 37.726316 25.653894 61.925052v80.842106A33.576421 33.576421 0 0 1 431.157895 464.842105h-80.842106a87.309474 87.309474 0 0 1-61.925052-25.653894A87.309474 87.309474 0 0 1 262.736842 377.263158v-26.947369c0-24.171789 9.808842-46.08 25.653895-61.925052A87.309474 87.309474 0 0 1 350.315789 262.736842zM431.157895 559.157895A33.576421 33.576421 0 0 1 464.842105 592.842105v80.842106a87.309474 87.309474 0 0 1-25.653894 61.925052A87.309474 87.309474 0 0 1 377.263158 761.263158h-26.947369a87.309474 87.309474 0 0 1-61.925052-25.653895A87.309474 87.309474 0 0 1 262.736842 673.684211v-26.947369c0-24.171789 9.808842-46.08 25.653895-61.925053A87.309474 87.309474 0 0 1 350.315789 559.157895zM673.684211 262.736842c24.171789 0 46.08 9.808842 61.925052 25.653895 15.845053 15.845053 25.653895 37.726316 25.653895 61.925052v26.947369a87.309474 87.309474 0 0 1-25.653895 61.925053A87.309474 87.309474 0 0 1 673.684211 464.842105h-80.842106A33.576421 33.576421 0 0 1 559.157895 431.157895v-80.842106c0-24.171789 9.808842-46.08 25.653894-61.925052A87.309474 87.309474 0 0 1 646.736842 262.736842zM673.684211 559.157895c24.171789 0 46.08 9.808842 61.925052 25.653894 15.845053 15.845053 25.653895 37.726316 25.653895 61.925053v26.947369a87.309474 87.309474 0 0 1-25.653895 61.925052A87.309474 87.309474 0 0 1 673.684211 761.263158h-26.947369a87.309474 87.309474 0 0 1-61.925053-25.653895A87.309474 87.309474 0 0 1 559.157895 673.684211v-80.842106A33.576421 33.576421 0 0 1 592.842105 559.157895z" p-id="6871"></path></svg>
