<?xml version="1.0" standalone="no"?><!DOCTYPE svg PUBLIC "-//W3C//DTD SVG 1.1//EN" "http://www.w3.org/Graphics/SVG/1.1/DTD/svg11.dtd"><svg t="1610540590908" class="icon" viewBox="0 0 1024 1024" version="1.1" xmlns="http://www.w3.org/2000/svg" p-id="7123" xmlns:xlink="http://www.w3.org/1999/xlink" width="200" height="200"><defs><style type="text/css"></style></defs><path d="M896 38.4c24.768 0 47.168 10.048 63.36 26.24s26.24 38.592 26.24 63.36v384c0 24.768-10.048 47.168-26.24 63.36s-38.592 26.24-63.36 26.24H601.6V896c0 24.768-10.048 47.168-26.24 63.36s-38.592 26.24-63.36 26.24H128c-24.768 0-47.168-10.048-63.36-26.24A89.344 89.344 0 0 1 38.4 896V512c0-24.768 10.048-47.168 26.24-63.36s38.592-26.24 63.36-26.24h294.4V128c0-24.768 10.048-47.168 26.24-63.36S487.232 38.4 512 38.4h384z" p-id="7124"></path></svg>
