<svg t="1611826306294" class="icon" viewBox="0 0 1024 1024" version="1.1" xmlns="http://www.w3.org/2000/svg" p-id="26504" width="16" height="16"><path d="M896 0a128 128 0 0 1 128 128v384a128 128 0 0 1-128 128h-256v256a128 128 0 0 1-128 128H128a128 128 0 0 1-128-128V512a128 128 0 0 1 128-128h256V128a128 128 0 0 1 128-128h384z" fill="#CDCDCD" p-id="26505"></path><path d="M896 0a128 128 0 0 1 128 128v384a128 128 0 0 1-128 128h-256v256a128 128 0 0 1-128 128H128a128 128 0 0 1-128-128V512a128 128 0 0 1 128-128h256V128a128 128 0 0 1 128-128h384z m0 76.8H512a51.2 51.2 0 0 0-50.816 44.8L460.8 128v256a76.8 76.8 0 0 1-68.928 76.416L384 460.8H128a51.2 51.2 0 0 0-50.816 44.8L76.8 512v384a51.2 51.2 0 0 0 44.8 50.816l6.4 0.384h384a51.2 51.2 0 0 0 50.816-44.8L563.2 896v-256a76.8 76.8 0 0 1 68.928-76.416L640 563.2h256a51.2 51.2 0 0 0 50.816-44.8L947.2 512V128a51.2 51.2 0 0 0-44.8-50.816L896 76.8z" fill="#6B6667" p-id="26506"></path></svg>