<?xml version="1.0" standalone="no"?><!DOCTYPE svg PUBLIC "-//W3C//DTD SVG 1.1//EN" "http://www.w3.org/Graphics/SVG/1.1/DTD/svg11.dtd"><svg t="1610540611111" class="icon" viewBox="0 0 1024 1024" version="1.1" xmlns="http://www.w3.org/2000/svg" p-id="7750" xmlns:xlink="http://www.w3.org/1999/xlink" width="200" height="200"><defs><style type="text/css"></style></defs><path d="M0 0m48 0l0 0q48 0 48 48l0 928q0 48-48 48l0 0q-48 0-48-48l0-928q0-48 48-48Z" p-id="7751"></path><path d="M230.4 614.4m121.6 0l512 0q121.6 0 121.6 121.6l0 0q0 121.6-121.6 121.6l-512 0q-121.6 0-121.6-121.6l0 0q0-121.6 121.6-121.6Z" p-id="7752"></path><path d="M230.4 166.4m121.6 0l256 0q121.6 0 121.6 121.6l0 0q0 121.6-121.6 121.6l-256 0q-121.6 0-121.6-121.6l0 0q0-121.6 121.6-121.6Z" p-id="7753"></path></svg>
