<svg t="1611826416402" class="icon" viewBox="0 0 1024 1024" version="1.1" xmlns="http://www.w3.org/2000/svg" p-id="26788" width="16" height="16"><path d="M48 0a48 48 0 0 1 48 48v928a48 48 0 1 1-96 0V48A48 48 0 0 1 48 0z" fill="#6B6667" p-id="26789"></path><path d="M320 576h576a128 128 0 0 1 128 128v64a128 128 0 0 1-128 128H320a128 128 0 0 1-128-128v-64a128 128 0 0 1 128-128z" fill="#CDCDCD" p-id="26790"></path><path d="M896 576a128 128 0 0 1 128 128v64a128 128 0 0 1-128 128H320a128 128 0 0 1-128-128v-64a128 128 0 0 1 128-128h576z m0 76.8H320a51.2 51.2 0 0 0-50.816 44.8L268.8 704v64a51.2 51.2 0 0 0 44.8 50.816l6.4 0.384h576a51.2 51.2 0 0 0 50.816-44.8l0.384-6.4v-64a51.2 51.2 0 0 0-44.8-50.816L896 652.8z" fill="#6B6667" p-id="26791"></path><path d="M320 128h320a128 128 0 0 1 128 128v64a128 128 0 0 1-128 128H320a128 128 0 0 1-128-128V256a128 128 0 0 1 128-128z" fill="#E5E6E9" p-id="26792"></path><path d="M640 128a128 128 0 0 1 128 128v64a128 128 0 0 1-128 128H320a128 128 0 0 1-128-128V256a128 128 0 0 1 128-128h320z m0 76.8H320a51.2 51.2 0 0 0-50.816 44.8L268.8 256v64a51.2 51.2 0 0 0 44.8 50.816L320 371.2h320a51.2 51.2 0 0 0 50.816-44.8L691.2 320V256a51.2 51.2 0 0 0-44.8-50.816L640 204.8z" fill="#6B6667" p-id="26793"></path></svg>