<svg t="1611826611632" class="icon" viewBox="0 0 1024 1024" version="1.1" xmlns="http://www.w3.org/2000/svg" p-id="27508" width="16" height="16"><path d="M128 896V128a128 128 0 0 1 128-128h64a128 128 0 0 1 128 128v768a128 128 0 0 1-128 128H256a128 128 0 0 1-128-128z" fill="#CDCDCD" p-id="27509"></path><path d="M128 128a128 128 0 0 1 128-128h64a128 128 0 0 1 128 128v768a128 128 0 0 1-128 128H256a128 128 0 0 1-128-128V128z m76.8 0v768a51.2 51.2 0 0 0 44.8 50.816l6.4 0.384h64a51.2 51.2 0 0 0 50.816-44.8L371.2 896V128a51.2 51.2 0 0 0-44.8-50.816L320 76.8H256a51.2 51.2 0 0 0-50.816 44.8L204.8 128z" fill="#6B6667" p-id="27510"></path><path d="M576 768V256a128 128 0 0 1 128-128h64a128 128 0 0 1 128 128v512a128 128 0 0 1-128 128h-64a128 128 0 0 1-128-128z" fill="#E5E6E9" p-id="27511"></path><path d="M576 256a128 128 0 0 1 128-128h64a128 128 0 0 1 128 128v512a128 128 0 0 1-128 128h-64a128 128 0 0 1-128-128V256z m76.8 0v512a51.2 51.2 0 0 0 44.8 50.816l6.4 0.384h64a51.2 51.2 0 0 0 50.816-44.8l0.384-6.4V256a51.2 51.2 0 0 0-44.8-50.816L768 204.8h-64a51.2 51.2 0 0 0-50.816 44.8L652.8 256z" fill="#6B6667" p-id="27512"></path><path d="M1024 512a48 48 0 0 1-48 48H48a48 48 0 1 1 0-96h928A48 48 0 0 1 1024 512z" fill="#6B6667" p-id="27513"></path></svg>