<?xml version="1.0" standalone="no"?><!DOCTYPE svg PUBLIC "-//W3C//DTD SVG 1.1//EN" "http://www.w3.org/Graphics/SVG/1.1/DTD/svg11.dtd"><svg t="1610540599390" class="icon" viewBox="0 0 1024 1024" version="1.1" xmlns="http://www.w3.org/2000/svg" p-id="7373" xmlns:xlink="http://www.w3.org/1999/xlink" width="200" height="200"><defs><style type="text/css"></style></defs><path d="M985.6 857.6m-121.6 0l-704 0q-121.6 0-121.6-121.6l0 0q0-121.6 121.6-121.6l704 0q121.6 0 121.6 121.6l0 0q0 121.6-121.6 121.6Z" p-id="7374"></path><path d="M857.6 409.6m-121.6 0l-448 0q-121.6 0-121.6-121.6l0 0q0-121.6 121.6-121.6l448 0q121.6 0 121.6 121.6l0 0q0 121.6-121.6 121.6Z" p-id="7375"></path><path d="M464 0m48 0l0 0q48 0 48 48l0 928q0 48-48 48l0 0q-48 0-48-48l0-928q0-48 48-48Z" p-id="7376"></path></svg>
