<svg t="1611826042288" class="icon" viewBox="0 0 1024 1024" version="1.1" xmlns="http://www.w3.org/2000/svg" p-id="26364" width="16" height="16"><path d="M608.704 64a64 64 0 0 1 49.92 24l223.36 278.848a64 64 0 0 1 14.016 40V832a128 128 0 0 1-128 128H256a128 128 0 0 1-128-128V192a128 128 0 0 1 128-128h352.704zM576 140.8H256a51.2 51.2 0 0 0-50.816 44.8L204.8 192v640a51.2 51.2 0 0 0 44.8 50.816l6.4 0.384h512a51.2 51.2 0 0 0 50.816-44.8l0.384-6.4V454.4H576l-0.064-313.6z m76.8 62.656v174.08l139.456 0.064-139.456-174.144z" fill="#6B6667" p-id="26365"></path></svg>