<svg t="1610698218749" class="icon" viewBox="0 0 1024 1024" version="1.1" xmlns="http://www.w3.org/2000/svg" p-id="3907" width="16" height="16"><path d="M488.97847 296.100426h7.423309V86.583937c0-78.328706 36.156633-111.02966 80.632491-66.425814l413.657478 414.16943c44.411864 44.795828 44.34787 117.109094-0.063994 161.840929l-410.52177 409.945824c-44.475858 44.34787-83.704205-0.767928-83.704205-66.617797v-221.035416h-62.202208c-179.503284 0-316.386537 96.503013-400.410712 282.85366-16.446468 33.724859-33.724859 26.301551-33.724859 0 3.64766-332.001082 229.482629-705.214327 488.91447-705.214327z" fill="#CDCDCD" p-id="3908"></path><path d="M577.03427 20.158123c-42.620031-42.748019-77.624771-14.526647-80.440509 56.890702l-0.191982 9.599106v209.452495H488.97847C229.546629 296.100426 3.71166 669.377664 0.064 1001.314753c0 26.301551 17.278391 33.724859 33.724859 0 81.272432-180.143224 211.820274-276.326267 382.620369-282.533689l17.790343-0.319971h62.202208v221.035416c0 63.162118 36.028645 107.190018 78.136723 71.673326l5.567482-5.119523 410.52177-409.88183c41.980091-42.236067 44.34787-109.109839 7.039344-154.09765l-6.97535-7.679285L577.03427 20.094129z m-3.775649 104.822238l363.102186 363.614139a38.076454 38.076454 0 0 1 4.287601 47.99553l-4.287601 5.247511-363.102186 362.590234v-262.75953H434.135577c-115.189273 0-216.107875 34.300806-299.49211 99.702715l-13.054784 10.623011 1.279881-3.967631c71.481343-204.013001 215.339946-366.557864 354.974943-374.749101l11.006975-0.383965h84.280151l0.063994-247.912913z" p-id="3909"></path></svg>