<?xml version="1.0" standalone="no"?><!DOCTYPE svg PUBLIC "-//W3C//DTD SVG 1.1//EN" "http://www.w3.org/Graphics/SVG/1.1/DTD/svg11.dtd"><svg t="1610591953996" class="icon" viewBox="0 0 1024 1024" version="1.1" xmlns="http://www.w3.org/2000/svg" p-id="2488" xmlns:xlink="http://www.w3.org/1999/xlink" width="200" height="200"><defs><style type="text/css"></style></defs><path d="M574.008889 98.872889c-11.719111 7.566222-13.312 20.081778-13.312 34.986667V356.693333c-122.311111-17.351111-228.465778 60.188444-307.143111 173.624889-60.814222 87.722667-105.415111 197.973333-124.245334 309.589334 38.115556-44.714667 73.159111-80.896 112.412445-108.600889 65.308444-46.08 142.222222-69.859556 229.546667-69.859556h89.429333v230.627556c0 14.222222 1.706667 28.103111 7.224889 36.579555l373.76-365.852444a67.697778 67.697778 0 0 0 19.740444-47.900445 67.697778 67.697778 0 0 0-19.569778-47.786666L574.008889 98.872889z" p-id="2489"></path></svg>