<?xml version="1.0" standalone="no"?><!DOCTYPE svg PUBLIC "-//W3C//DTD SVG 1.1//EN" "http://www.w3.org/Graphics/SVG/1.1/DTD/svg11.dtd"><svg t="1610540618399" class="icon" viewBox="0 0 1024 1024" version="1.1" xmlns="http://www.w3.org/2000/svg" p-id="8002" xmlns:xlink="http://www.w3.org/1999/xlink" width="200" height="200"><defs><style type="text/css"></style></defs><path d="M1024 1024m-48 0l0 0q-48 0-48-48l0-928q0-48 48-48l0 0q48 0 48 48l0 928q0 48-48 48Z" p-id="8003"></path><path d="M793.6 857.6m-121.6 0l-512 0q-121.6 0-121.6-121.6l0 0q0-121.6 121.6-121.6l512 0q121.6 0 121.6 121.6l0 0q0 121.6-121.6 121.6Z" p-id="8004"></path><path d="M793.6 409.6m-121.6 0l-256 0q-121.6 0-121.6-121.6l0 0q0-121.6 121.6-121.6l256 0q121.6 0 121.6 121.6l0 0q0 121.6-121.6 121.6Z" p-id="8005"></path></svg>
