<svg t="1611826442590" class="icon" viewBox="0 0 1024 1024" version="1.1" xmlns="http://www.w3.org/2000/svg" p-id="26932" width="16" height="16"><path d="M976 1024a48 48 0 0 1-48-48V48a48 48 0 1 1 96 0v928a48 48 0 0 1-48 48z" fill="#6B6667" p-id="26933"></path><path d="M704 896H128a128 128 0 0 1-128-128v-64a128 128 0 0 1 128-128h576a128 128 0 0 1 128 128v64a128 128 0 0 1-128 128z" fill="#CDCDCD" p-id="26934"></path><path d="M128 896a128 128 0 0 1-128-128v-64a128 128 0 0 1 128-128h576a128 128 0 0 1 128 128v64a128 128 0 0 1-128 128H128z m0-76.8h576a51.2 51.2 0 0 0 50.816-44.8l0.384-6.4v-64a51.2 51.2 0 0 0-44.8-50.816L704 652.8H128a51.2 51.2 0 0 0-50.816 44.8L76.8 704v64a51.2 51.2 0 0 0 44.8 50.816l6.4 0.384z" fill="#6B6667" p-id="26935"></path><path d="M704 448H384a128 128 0 0 1-128-128V256a128 128 0 0 1 128-128h320a128 128 0 0 1 128 128v64a128 128 0 0 1-128 128z" fill="#E5E6E9" p-id="26936"></path><path d="M384 448a128 128 0 0 1-128-128V256a128 128 0 0 1 128-128h320a128 128 0 0 1 128 128v64a128 128 0 0 1-128 128H384z m0-76.8h320a51.2 51.2 0 0 0 50.816-44.8L755.2 320V256a51.2 51.2 0 0 0-44.8-50.816L704 204.8H384a51.2 51.2 0 0 0-50.816 44.8L332.8 256v64a51.2 51.2 0 0 0 44.8 50.816L384 371.2z" fill="#6B6667" p-id="26937"></path></svg>