<svg t="1610697518485" class="icon" viewBox="0 0 1024 1024" version="1.1" xmlns="http://www.w3.org/2000/svg" p-id="3625" width="16" height="16"><path d="M902.656 621.184L257.28 1004.352A128 128 0 0 1 64 894.272V128A128 128 0 0 1 257.344 17.92l645.312 383.168a128 128 0 0 1 0 220.16z" fill="#CDCDCD" p-id="3626"></path><path d="M192 0a128 128 0 0 1 65.344 17.92l645.312 383.168a128 128 0 0 1 0 220.16L257.28 1004.288A128 128 0 0 1 64 894.272V128a128 128 0 0 1 128-128z m0 76.8a51.2 51.2 0 0 0-50.816 44.8L140.8 128v766.272a51.2 51.2 0 0 0 71.104 47.168l6.208-3.2 645.312-383.104a51.2 51.2 0 0 0 5.76-84.096l-5.76-3.904L218.112 83.968A51.2 51.2 0 0 0 192 76.8z" p-id="3627"></path></svg>