<svg t="1610696729862" class="icon" viewBox="0 0 1024 1024" version="1.1" xmlns="http://www.w3.org/2000/svg" p-id="3480" width="16" height="16"><path d="M256 0h512a256 256 0 0 1 256 256v512a256 256 0 0 1-256 256H256a256 256 0 0 1-256-256V256a256 256 0 0 1 256-256z" fill="#D7D7D7" p-id="3481"></path><path d="M768 0a256 256 0 0 1 256 256v512a256 256 0 0 1-256 256H256a256 256 0 0 1-256-256V256a256 256 0 0 1 256-256h512z m0 76.8H256a179.2 179.2 0 0 0-178.88 168.32L76.8 256v512a179.2 179.2 0 0 0 168.32 178.88L256 947.2h512a179.2 179.2 0 0 0 178.88-168.32L947.2 768V256a179.2 179.2 0 0 0-168.32-178.88L768 76.8z" fill="#6B6667" p-id="3482"></path><path d="M256 0h512v384a64 64 0 0 1-64 64H320a64 64 0 0 1-64-64V0z" fill="#E5E6E9" p-id="3483"></path><path d="M768 0v384a64 64 0 0 1-64 64H320a64 64 0 0 1-64-64V0h512z m-76.8 76.8H332.8v294.4h358.4V76.8z" fill="#6B6667" p-id="3484"></path><path d="M294.4 640h435.2a38.4 38.4 0 0 1 0 76.8H294.4a38.4 38.4 0 0 1 0-76.8z" fill="#6B6667" p-id="3485"></path><path d="M608 160h-128v128h128z" p-id="3486"></path></svg>