<?xml version="1.0" standalone="no"?><!DOCTYPE svg PUBLIC "-//W3C//DTD SVG 1.1//EN" "http://www.w3.org/Graphics/SVG/1.1/DTD/svg11.dtd"><svg t="1610540625996" class="icon" viewBox="0 0 1024 1024" version="1.1" xmlns="http://www.w3.org/2000/svg" p-id="8254" xmlns:xlink="http://www.w3.org/1999/xlink" width="200" height="200"><defs><style type="text/css"></style></defs><path d="M38.4 38.4m256 0l435.2 0q256 0 256 256l0 435.2q0 256-256 256l-435.2 0q-256 0-256-256l0-435.2q0-256 256-256Z" p-id="8255"></path><path d="M294.4 38.4h435.2V384L320 409.6 294.4 38.4z" p-id="8256"></path><path d="M256 640m38.4 0l435.2 0q38.4 0 38.4 38.4l0 0q0 38.4-38.4 38.4l-435.2 0q-38.4 0-38.4-38.4l0 0q0-38.4 38.4-38.4Z" p-id="8257"></path></svg>
