<svg t="1610705480044" class="icon" viewBox="0 0 1024 1024" version="1.1" xmlns="http://www.w3.org/2000/svg" p-id="4475" width="16" height="16"><path d="M127.936352 0h767.61811a127.936352 127.936352 0 0 1 127.936351 127.936352v31.984088a127.936352 127.936352 0 0 1-127.936351 127.936351H127.936352a127.936352 127.936352 0 0 1-127.936352-127.936351V127.936352a127.936352 127.936352 0 0 1 127.936352-127.936352z" fill="#CDCDCD" p-id="4476"></path><path d="M127.936352 287.856791a127.936352 127.936352 0 0 1-127.936352-127.936351V127.936352a127.936352 127.936352 0 0 1 127.936352-127.936352h767.61811a127.936352 127.936352 0 0 1 127.936351 127.936352v31.984088a127.936352 127.936352 0 0 1-127.936351 127.936351H127.936352z m0-76.761811h767.61811a51.174541 51.174541 0 0 0 50.790731-44.777723l0.383809-6.396817V127.936352a51.174541 51.174541 0 0 0-44.777723-50.790732L895.554462 76.761811H127.936352a51.174541 51.174541 0 0 0-50.790732 44.777723L76.761811 127.936352v31.984088a51.174541 51.174541 0 0 0 44.777723 50.790731L127.936352 211.09498z" fill="#6B6667" p-id="4477"></path><path d="M486.541945 1015.110982a39.404396 39.404396 0 0 1-6.332849-5.94904L328.668487 829.667241a36.909637 36.909637 0 0 1 6.33285-53.733268A41.835187 41.835187 0 0 1 360.14083 767.61811H463.769275V255.872703h95.952264v511.745407h103.564476c22.260925 0 40.363919 17.143471 40.363919 38.252969a36.973606 36.973606 0 0 1-8.827608 23.86013l-151.604577 179.430733a41.899155 41.899155 0 0 1-56.675804 5.94904z" fill="#6B6667" p-id="4478"></path><path d="M127.936352 351.824967h767.61811a127.936352 127.936352 0 0 1 127.936351 127.936352V511.745407a127.936352 127.936352 0 0 1-127.936351 127.936351H127.936352a127.936352 127.936352 0 0 1-127.936352-127.936351v-31.984088a127.936352 127.936352 0 0 1 127.936352-127.936352z" fill="#E5E6E9" p-id="4479"></path><path d="M127.936352 639.681758a127.936352 127.936352 0 0 1-127.936352-127.936351v-31.984088a127.936352 127.936352 0 0 1 127.936352-127.936352h767.61811a127.936352 127.936352 0 0 1 127.936351 127.936352V511.745407a127.936352 127.936352 0 0 1-127.936351 127.936351H127.936352z m0-76.761811h767.61811a51.174541 51.174541 0 0 0 50.790731-44.777723L946.729002 511.745407v-31.984088a51.174541 51.174541 0 0 0-44.777723-50.790732L895.554462 428.586778H127.936352a51.174541 51.174541 0 0 0-50.790732 44.777723l-0.383809 6.396818V511.745407a51.174541 51.174541 0 0 0 44.777723 50.790731L127.936352 562.919947z" p-id="4480"></path></svg>