<svg t="1610705455733" class="icon" viewBox="0 0 1024 1024" version="1.1" xmlns="http://www.w3.org/2000/svg" p-id="4331" width="16" height="16"><path d="M895.881856 1024H127.983122a127.983122 127.983122 0 0 1-127.983122-127.983122v-31.995781a127.983122 127.983122 0 0 1 127.983122-127.983122h767.898734a127.983122 127.983122 0 0 1 127.983122 127.983122v31.995781a127.983122 127.983122 0 0 1-127.983122 127.983122z" fill="#CDCDCD" p-id="4332"></path><path d="M895.881856 736.037975a127.983122 127.983122 0 0 1 127.983122 127.983122v31.995781a127.983122 127.983122 0 0 1-127.983122 127.983122H127.983122a127.983122 127.983122 0 0 1-127.983122-127.983122v-31.995781a127.983122 127.983122 0 0 1 127.983122-127.983122h767.898734z m0 76.789873H127.983122a51.193249 51.193249 0 0 0-50.809299 44.794093l-0.38395 6.399156v31.995781a51.193249 51.193249 0 0 0 44.794093 50.809299l6.399156 0.38395h767.898734a51.193249 51.193249 0 0 0 50.809299-44.794093l0.383949-6.399156v-31.995781a51.193249 51.193249 0 0 0-44.794092-50.809299L895.881856 812.827848z" fill="#6B6667" p-id="4333"></path><path d="M895.881856 672.046414H127.983122a127.983122 127.983122 0 0 1-127.983122-127.983122V512.067511a127.983122 127.983122 0 0 1 127.983122-127.983122h767.898734a127.983122 127.983122 0 0 1 127.983122 127.983122v31.995781a127.983122 127.983122 0 0 1-127.983122 127.983122z" fill="#E5E6E9" p-id="4334"></path><path d="M895.881856 384.084389a127.983122 127.983122 0 0 1 127.983122 127.983122v31.995781a127.983122 127.983122 0 0 1-127.983122 127.983122H127.983122a127.983122 127.983122 0 0 1-127.983122-127.983122V512.067511a127.983122 127.983122 0 0 1 127.983122-127.983122h767.898734z m0 76.789873H127.983122a51.193249 51.193249 0 0 0-50.809299 44.794093L76.789873 512.067511v31.995781a51.193249 51.193249 0 0 0 44.794093 50.809299L127.983122 595.256541h767.898734a51.193249 51.193249 0 0 0 50.809299-44.794093l0.383949-6.399156V512.067511a51.193249 51.193249 0 0 0-44.794092-50.809299L895.881856 460.874262z" fill="#B2B1B1" p-id="4335"></path><path d="M537.145164 8.517917c2.367688 1.791764 4.479409 3.775502 6.335165 5.951215l151.596008 179.496329a36.923131 36.923131 0 0 1-6.335165 53.752911 41.850481 41.850481 0 0 1-25.212675 8.382895H559.92616v511.932489h-95.987342V256.101267H360.336481C338.067417 256.101267 319.957806 238.951528 319.957806 217.834313c0-8.702852 3.135586-17.085747 8.830835-23.868852L480.448641 14.469132a41.914473 41.914473 0 0 1 56.696523-5.951215z" p-id="4336"></path></svg>