<?xml version="1.0" standalone="no"?><!DOCTYPE svg PUBLIC "-//W3C//DTD SVG 1.1//EN" "http://www.w3.org/Graphics/SVG/1.1/DTD/svg11.dtd"><svg t="1610541200152" class="icon" viewBox="0 0 1024 1024" version="1.1" xmlns="http://www.w3.org/2000/svg" p-id="9778" xmlns:xlink="http://www.w3.org/1999/xlink" width="200" height="200"><defs><style type="text/css"></style></defs><path d="M985.565075 985.602832m-105.592213 0l-735.945724 0q-105.592213 0-105.592213-105.592213l0 0q0-105.592213 105.592213-105.592212l735.945724 0q105.592213 0 105.592213 105.592212l0 0q0 105.592213-105.592213 105.592213Z" p-id="9779"></path><path d="M985.565075 633.62879m-105.592213 0l-735.945724 0q-105.592213 0-105.592213-105.592213l0 0q0-105.592213 105.592213-105.592212l735.945724 0q105.592213 0 105.592213 105.592212l0 0q0 105.592213-105.592213 105.592213Z" p-id="9780"></path><path d="M512 64.070795a47.99646 47.99646 0 0 1 47.99646 47.99646V768.018879h-95.99292V112.067255A47.99646 47.99646 0 0 1 512 64.070795z" p-id="9781"></path><path d="M543.549673 14.410457l151.604819 179.506762a36.925277 36.925277 0 0 1-6.335532 53.756035 41.852913 41.852913 0 0 1-25.214141 8.383382H360.331186C338.124823 256.056636 320.014159 238.905901 320.014159 217.787458c0-8.703358 3.135769-17.08674 8.831349-23.870239L480.514322 14.410457a41.916909 41.916909 0 0 1 63.035351 0z" p-id="9782"></path></svg>