<svg t="1611826453310" class="icon" viewBox="0 0 1024 1024" version="1.1" xmlns="http://www.w3.org/2000/svg" p-id="27076" width="16" height="16"><path d="M1024 48a48 48 0 0 1-48 48H48a48 48 0 1 1 0-96h928a48 48 0 0 1 48 48z" fill="#6B6667" p-id="27077"></path><path d="M448 320v576a128 128 0 0 1-128 128H256a128 128 0 0 1-128-128V320a128 128 0 0 1 128-128h64a128 128 0 0 1 128 128z" fill="#CDCDCD" p-id="27078"></path><path d="M448 896a128 128 0 0 1-128 128H256a128 128 0 0 1-128-128V320a128 128 0 0 1 128-128h64a128 128 0 0 1 128 128v576z m-76.8 0V320a51.2 51.2 0 0 0-44.8-50.816L320 268.8H256a51.2 51.2 0 0 0-50.816 44.8L204.8 320v576a51.2 51.2 0 0 0 44.8 50.816l6.4 0.384h64a51.2 51.2 0 0 0 50.816-44.8L371.2 896z" fill="#6B6667" p-id="27079"></path><path d="M896 320v320a128 128 0 0 1-128 128h-64a128 128 0 0 1-128-128V320a128 128 0 0 1 128-128h64a128 128 0 0 1 128 128z" fill="#E5E6E9" p-id="27080"></path><path d="M896 640a128 128 0 0 1-128 128h-64a128 128 0 0 1-128-128V320a128 128 0 0 1 128-128h64a128 128 0 0 1 128 128v320z m-76.8 0V320a51.2 51.2 0 0 0-44.8-50.816L768 268.8h-64a51.2 51.2 0 0 0-50.816 44.8L652.8 320v320a51.2 51.2 0 0 0 44.8 50.816l6.4 0.384h64a51.2 51.2 0 0 0 50.816-44.8l0.384-6.4z" fill="#6B6667" p-id="27081"></path></svg>