<svg t="1610698110301" class="icon" viewBox="0 0 1024 1024" version="1.1" xmlns="http://www.w3.org/2000/svg" p-id="3766" width="16" height="16"><path d="M534.998499 296.100426h-7.423309V86.583937c0-78.328706-36.156633-111.02966-80.632491-66.425814L33.285221 434.327553c-44.411864 44.795828-44.34787 117.109094 0.063994 161.840929l410.52177 409.945824c44.475858 44.34787 83.704205-0.767928 83.704205-66.617797v-221.035416h62.202208c179.503284 0 316.386537 96.503013 400.410712 282.85366 16.446468 33.724859 33.724859 26.301551 33.724859 0-3.64766-332.001082-229.482629-705.214327-488.91447-705.214327z" fill="#CDCDCD" p-id="3767"></path><path d="M446.942699 20.158123c42.620031-42.748019 77.624771-14.526647 80.440509 56.890702l0.191982 9.599106v209.452495h7.487303c259.367846 0 485.202815 373.213245 488.850476 705.214327 0 26.301551-17.278391 33.724859-33.724859 0-81.272432-180.143224-211.820274-276.326267-382.620369-282.533689l-17.790343-0.319971h-62.202208v221.035416c0 63.162118-36.028645 107.190018-78.136723 71.673326l-5.567482-5.119523L33.349215 596.232476a114.933297 114.933297 0 0 1-7.039344-154.09765l6.97535-7.679285L446.942699 20.094129z m3.775649 104.822238L87.616162 488.5945a38.076454 38.076454 0 0 0-4.287601 47.99553l4.287601 5.247511 363.102186 362.590234v-262.75953h139.05905c115.189273 0 216.107875 34.300806 299.49211 99.702715l13.054784 10.623011-1.279881-3.967631c-71.481343-204.013001-215.339946-366.557864-354.974943-374.749101l-11.006975-0.383965H450.782342l-0.063994-247.912913z" p-id="3768"></path></svg>