<svg t="1610683983639" class="icon" viewBox="0 0 1024 1024" version="1.1" xmlns="http://www.w3.org/2000/svg" p-id="2780" width="16" height="16"><path d="M512 89.6a298.666667 298.666667 0 1 1 422.4 422.4l-150.912 150.869333-60.330667-60.330666 150.869334-150.869334a213.333333 213.333333 0 0 0-294.997334-308.096l-6.698666 6.4L421.461333 300.8 361.130667 240.512 512 89.6zM240.426667 361.216L300.8 421.546667l-150.784 150.826666a213.333333 213.333333 0 0 0 294.997333 308.096l6.698667-6.4 150.784-150.826666 60.330667 60.330666L512 934.357333A298.666667 298.666667 0 1 1 89.6 512l150.826667-150.826667z m452.608-90.538667a42.666667 42.666667 0 0 1 60.330666 60.330667l-422.4 422.4a42.666667 42.666667 0 0 1-60.330666-60.330667l422.4-422.4z" fill="#040C2C" p-id="2781"></path></svg>