<svg t="1610683996947" class="icon" viewBox="0 0 1024 1024" version="1.1" xmlns="http://www.w3.org/2000/svg" p-id="2920" width="16" height="16"><path d="M853.333333 42.666667a128 128 0 0 1 128 128v682.666666a128 128 0 0 1-128 128H170.666667a128 128 0 0 1-128-128V170.666667a128 128 0 0 1 128-128h682.666666z m-109.866666 459.178666l-281.045334 335.530667-123.946666-171.178667-190.933334 222.976c5.333333 3.456 11.52 5.76 18.133334 6.528L170.666667 896h682.666666a42.666667 42.666667 0 0 0 42.368-37.674667L896 853.333333v-74.282666l-152.533333-277.205334zM853.333333 128H170.666667a42.666667 42.666667 0 0 0-42.368 37.674667L128 170.666667v610.090666l216.149333-252.288 123.136 170.112 290.858667-347.093333L896 601.941333V170.666667a42.666667 42.666667 0 0 0-37.674667-42.368L853.333333 128zM384 213.333333a128 128 0 1 1 0 256 128 128 0 0 1 0-256z m0 85.333334a42.666667 42.666667 0 1 0 0 85.333333 42.666667 42.666667 0 0 0 0-85.333333z" fill="#040C2C" p-id="2921"></path></svg>