<svg t="1610683973155" class="icon" viewBox="0 0 1024 1024" version="1.1" xmlns="http://www.w3.org/2000/svg" p-id="2640" width="16" height="16"><path d="M896 128a128 128 0 0 1 128 128v512a128 128 0 0 1-128 128H128a128 128 0 0 1-128-128V256a128 128 0 0 1 128-128h768z m0 85.333333H128a42.666667 42.666667 0 0 0-42.368 37.674667L85.333333 256v512a42.666667 42.666667 0 0 0 37.674667 42.368L128 810.666667h768a42.666667 42.666667 0 0 0 42.368-37.674667L938.666667 768V256a42.666667 42.666667 0 0 0-37.674667-42.368L896 213.333333zM306.176 396.288c24.234667 0 43.349333 5.802667 57.002667 17.408 12.629333 10.922667 19.114667 25.6 19.114666 44.032 0 13.653333-3.413333 25.258667-9.898666 34.816-6.485333 8.874667-15.701333 15.36-27.989334 20.138667 16.042667 3.072 27.989333 9.557333 36.181334 19.456 7.850667 9.557333 11.946667 22.869333 11.946666 39.253333 0 24.576-8.533333 42.666667-25.258666 54.272-12.544 8.362667-29.781333 13.056-51.285334 14.08L306.517333 640H194.56V396.288h111.616z m304.810667 0v34.133333h-79.872V640h-39.936v-209.578667H411.306667v-34.133333h199.68z m68.949333 0l120.490667 175.786667h1.365333v-175.786667h40.277333V640h-38.912l-121.856-178.176h-1.365333V640H640V396.288h39.936z m-378.197333 135.168H234.496v75.776h66.218667c15.018667 0 26.965333-2.389333 35.498666-7.168 10.922667-6.144 16.384-15.701333 16.384-29.354667 0-13.994667-4.096-23.893333-11.946666-30.037333-7.04-5.248-17.536-8.277333-31.573334-9.045333l-7.338666-0.170667z m-5.461334-102.4H234.496v69.632h61.098667c17.066667 0 29.013333-3.072 36.181333-8.533333 6.826667-5.802667 10.581333-15.018667 10.581333-27.648 0-11.605333-3.754667-20.138667-10.581333-25.258667-6.4-4.693333-15.872-7.338667-28.757333-8.021333l-6.741334-0.170667z" fill="#040C2C" p-id="2641"></path></svg>