<?xml version="1.0" encoding="UTF-8"?>
<svg width="16px" height="16px" viewBox="0 0 16 16" version="1.1" xmlns="http://www.w3.org/2000/svg" xmlns:xlink="http://www.w3.org/1999/xlink">
    <title>icon/组合</title>
    <g id="icon/组合" stroke="none" stroke-width="1" fill="none" fill-rule="evenodd">
        <rect id="矩形" fill="#000000" fill-rule="nonzero" opacity="0" x="0" y="0" width="16" height="16"></rect>
        <path d="M14,0.6 C14.3865993,0.6 14.7365993,0.756700338 14.9899495,1.01005051 C15.2432997,1.26340068 15.4,1.61340068 15.4,2 L15.4,2 L15.4,8 C15.4,8.38659932 15.2432997,8.73659932 14.9899495,8.98994949 C14.7365993,9.24329966 14.3865993,9.4 14,9.4 L14,9.4 L9.4,9.4 L9.4,14 C9.4,14.3865993 9.24329966,14.7365993 8.98994949,14.9899495 C8.73659932,15.2432997 8.38659932,15.4 8,15.4 L8,15.4 L2,15.4 C1.61340068,15.4 1.26340068,15.2432997 1.01005051,14.9899495 C0.756700338,14.7365993 0.6,14.3865993 0.6,14 L0.6,14 L0.6,8 C0.6,7.61340068 0.756700338,7.26340068 1.01005051,7.01005051 C1.26340068,6.75670034 1.61340068,6.6 2,6.6 L2,6.6 L6.6,6.6 L6.6,2 C6.6,1.61340068 6.75670034,1.26340068 7.01005051,1.01005051 C7.26340068,0.756700338 7.61340068,0.6 8,0.6 L8,0.6 L14,0.6 Z" id="形状结合"></path>
    </g>
</svg>
